<!DOCTYPE svg PUBLIC "-//W3C//DTD SVG 1.1//EN" "http://www.w3.org/Graphics/SVG/1.1/DTD/svg11.dtd">
<!-- Uploaded to: SVG Repo, www.svgrepo.com, Transformed by: SVG Repo Mixer Tools -->
<svg fill="rgb(26, 115, 232)" width="64px" height="64px" viewBox="0 0 24.00 24.00" xmlns="http://www.w3.org/2000/svg" stroke="rgb(26, 115, 232)" stroke-width="0.00024000000000000003">
<g id="SVGRepo_bgCarrier" stroke-width="0"/>
<g id="SVGRepo_tracerCarrier" stroke-linecap="round" stroke-linejoin="round" stroke="#CCCCCC" stroke-width="0.336"/>
<g id="SVGRepo_iconCarrier">
<path d="M22,16H19V15a1,1,0,0,0,.65-1.759L13,7.54V5h1a1,1,0,0,0,0-2H13V2a1,1,0,0,0-2,0V3H10a1,1,0,0,0,0,2h1V7.54l-6.65,5.7a1,1,0,0,0-.109,1.41A.983.983,0,0,0,5,14.988V16H2a1,1,0,0,0-1,1v5a1,1,0,0,0,1,1H22a1,1,0,0,0,1-1V17A1,1,0,0,0,22,16ZM3,18H5v3H3Zm4-1V13.6l5-4.285L17,13.6V21H15V18a3,3,0,0,0-6,0v3H7Zm4,4V18a1,1,0,0,1,2,0v3Zm10,0H19V18h2Z"/>
</g>
</svg>